# xmcd
#
# Track frame offsets: 
#        150
#        18767
#        45395
#        82835
#        95092
#        114680
#        131582
#        155575
#        185812
#        206927
#        214165
#        234710
#        272402
#
# Disc length: 4368 seconds
#
# Revision: 2
# Processed by: cddbd v1.5.2PL0 Copyright (c) Steve Scherf et al.
# Submitted via: ExactAudioCopyFreeDBPlugin 1.0
#
DISCID=b5110e0d
DTITLE=Faithless - Outrospective
DYEAR=2001
DGENRE=Electronic
TTITLE0=Donny X
TTITLE1=Not Enuff Love
TTITLE2=We Come 1
TTITLE3=Crazy English Summer
TTITLE4=Muhammed Ali
TTITLE5=Machines R Us
TTITLE6=One Step Too Far
TTITLE7=Tarantula
TTITLE8=Giving Myself Away
TTITLE9=Code
TTITLE10=Evergreen
TTITLE11=Liontamer
TTITLE12=Data Track
EXTD=
EXTT0=
EXTT1=
EXTT2=
EXTT3=
EXTT4=
EXTT5=
EXTT6=
EXTT7=
EXTT8=
EXTT9=
EXTT10=
EXTT11=
EXTT12=
PLAYORDER=
